Coordinates
version=1
nRows=22
nColumns=33
inDegrees=yes

Units are S.I. units (second, meters, Newtons, ...)
Angles are in degrees.

endheader
time	ground_thorax_rot_x	ground_thorax_rot_y	ground_thorax_rot_z	ground_thorax_tx	ground_thorax_ty	ground_thorax_tz	clav_prot_r	clav_elev_r	scapula_abduction_r	scapula_elevation_r	scapula_upward_rot_r	scapula_winging_r	shoulder_elv_r	plane_of_elev_r	axial_rot_r	elbow_flexion_r	pro_sup_r	wrist_flex_r	wrist_dev_r	clav_prot_l	clav_elev_l	scapula_abduction_l	scapula_elevation_l	scapula_upward_rot_l	scapula_winging_l	shoulder_elv_l	plane_of_elev_l	axial_rot_l	elbow_flexion_l	pro_sup_l	wrist_flex_l	wrist_dev_l	
4.0100	-35.484939	-16.193815	25.977606	-179.534405	814.240101	6.268388	8.790224	-45.000000	41.252975	-45.000000	-45.000000	-4056.562170	-3704.533348	143.940948	180.000000	1449.129673	50.205123	25.131873	13.622615	15.626165	38.459292	-38.672514	-45.000000	-45.000000	803.159577	-1172.428543	133.544123	-180.000000	-349.118202	18.392166	7.657466	-21.273910	
4.0200	-35.661757	-15.772796	25.509285	-183.275510	815.829926	6.200141	8.786668	-45.000000	41.210716	-45.000000	-45.000000	-4056.718676	-3704.334915	143.912230	180.000000	1449.273551	50.567785	25.211118	13.328605	15.581406	38.469535	-38.696780	-45.000000	-45.000000	803.337465	-1172.271670	133.552421	-180.000000	-349.027809	18.624802	7.458407	-21.333501	
4.0300	-35.832006	-15.354980	25.047141	-186.984645	817.359310	6.144543	8.790551	-45.000000	41.164106	-45.000000	-45.000000	-4056.885492	-3704.158655	143.883797	180.000000	1449.401395	50.893034	25.282958	13.047909	15.532612	38.459002	-38.710950	-45.000000	-45.000000	803.510034	-1172.128947	133.555266	-180.000000	-348.960065	18.931165	7.245075	-21.381280	
4.0400	-35.996405	-14.936318	24.581375	-190.654328	818.824941	6.101518	8.797313	-45.000000	41.128347	-45.000000	-45.000000	-4057.053236	-3703.997652	143.856228	180.000000	1449.505543	51.180162	25.349520	12.785551	15.478717	38.435547	-38.720229	-45.000000	-45.000000	803.672130	-1172.004966	133.564905	-180.000000	-348.904145	19.310020	7.017248	-21.419046	
4.0500	-36.154432	-14.518177	24.119119	-194.277792	820.224649	6.070971	8.814084	-45.000000	41.104769	-45.000000	-45.000000	-4057.232067	-3703.861649	143.824904	180.000000	1449.585419	51.435177	25.418705	12.547553	15.425420	38.381520	-38.723004	-45.000000	-45.000000	803.828666	-1171.901134	133.571019	-180.000000	-348.873789	19.758010	6.763485	-21.439787	
4.0600	-36.307177	-14.097330	23.656880	-197.848630	821.557201	6.052978	8.828182	-45.000000	41.091429	-45.000000	-45.000000	-4057.400360	-3703.737791	143.805744	180.000000	1449.639850	51.662602	25.480144	12.322348	15.363097	38.336097	-38.724301	-45.000000	-45.000000	803.967338	-1171.813546	133.596262	-180.000000	-348.835367	20.279206	6.503097	-21.456415	
4.0700	-36.452969	-13.684655	23.201383	-201.361468	822.822452	6.047901	8.850566	-45.000000	41.088000	-45.000000	-45.000000	-4057.572838	-3703.636656	143.787076	180.000000	1449.674774	51.874500	25.548074	12.117056	15.306315	38.269102	-38.710163	-45.000000	-45.000000	804.094774	-1171.739011	133.623186	-180.000000	-348.806673	20.876561	6.217433	-21.457848	
4.0800	-36.591708	-13.277695	22.753733	-204.811067	824.020778	6.056392	8.870010	-45.000000	41.088470	-45.000000	-45.000000	-4057.737448	-3703.547273	143.778862	180.000000	1449.693403	52.079691	25.614745	11.920983	15.250917	38.204901	-38.679875	-45.000000	-45.000000	804.208461	-1171.670494	133.651922	-180.000000	-348.769440	21.560311	5.923392	-21.452415	
4.0900	-36.722436	-12.884260	22.321767	-208.192755	825.152983	6.079246	8.889132	-45.000000	41.081836	-45.000000	-45.000000	-4057.896120	-3703.472622	143.777522	180.000000	1449.696358	52.290065	25.680936	11.731510	15.203240	38.137334	-38.623352	-45.000000	-45.000000	804.311694	-1171.601761	133.669771	-180.000000	-348.733881	22.340966	5.619644	-21.436269	
4.1000	-36.847379	-12.501265	21.904552	-211.502326	826.220014	6.117149	8.900917	-45.000000	41.059070	-45.000000	-45.000000	-4058.038072	-3703.404189	143.790758	180.000000	1449.690503	52.514077	25.735615	11.534540	15.150639	38.090678	-38.552030	-45.000000	-45.000000	804.401581	-1171.535237	133.690833	-180.000000	-348.683173	23.228181	5.324346	-21.419785	
4.1100	-36.967836	-12.134656	21.498343	-214.736118	827.222726	6.170428	8.913350	-45.000000	41.032689	-45.000000	-45.000000	-4058.170059	-3703.348817	143.808351	180.000000	1449.674224	52.764287	25.790386	11.338146	15.102663	38.041967	-38.460378	-45.000000	-45.000000	804.481081	-1171.469732	133.710940	-180.000000	-348.629746	24.223911	5.021457	-21.393846	
4.1200	-37.085550	-11.776852	21.102886	-217.891103	828.161739	6.238844	8.924344	-45.000000	41.003590	-45.000000	-45.000000	-4058.291877	-3703.304021	143.836306	180.000000	1449.652461	53.049354	25.841604	11.135839	15.051462	37.999517	-38.360582	-45.000000	-45.000000	804.548979	-1171.410148	133.735548	-180.000000	-348.568240	25.328898	4.717971	-21.361631	
4.1300	-37.204149	-11.430061	20.719110	-220.965261	829.037444	6.321588	8.933518	-45.000000	40.968941	-45.000000	-45.000000	-4058.401204	-3703.274568	143.875367	180.000000	1449.620726	53.376067	25.886740	10.925848	14.994514	37.968105	-38.253385	-45.000000	-45.000000	804.606766	-1171.351380	133.766530	-180.000000	-348.494289	26.536136	4.415909	-21.324696	
4.1400	-37.323227	-11.093104	20.347507	-223.957869	829.850047	6.417380	8.939128	-45.000000	40.923615	-45.000000	-45.000000	-4058.496921	-3703.256611	143.929952	180.000000	1449.588330	53.746613	25.921272	10.700827	14.928369	37.956868	-38.143678	-45.000000	-45.000000	804.652521	-1171.298474	133.808605	-180.000000	-348.404167	27.840979	4.124219	-21.285226	
4.1500	-37.441081	-10.769142	19.986151	-226.869599	830.599639	6.524744	8.947559	-45.000000	40.881828	-45.000000	-45.000000	-4058.588607	-3703.253602	143.992006	180.000000	1449.551254	54.165702	25.956888	10.471531	14.864307	37.943144	-38.026914	-45.000000	-45.000000	804.685560	-1171.252445	133.854955	-180.000000	-348.311317	29.232926	3.827004	-21.232892	
4.1600	-37.554521	-10.456978	19.632861	-229.702570	831.286257	6.642219	8.959706	-45.000000	40.846540	-45.000000	-45.000000	-4058.680491	-3703.259676	144.059515	180.000000	1449.515740	54.636269	25.997122	10.238249	14.808811	37.920871	-37.902840	-45.000000	-45.000000	804.703525	-1171.219252	133.902162	-180.000000	-348.221309	30.710170	3.523445	-21.163084	
4.1700	-37.666490	-10.157725	19.288865	-232.459827	831.909831	6.768589	8.971805	-45.000000	40.810087	-45.000000	-45.000000	-4058.768923	-3703.275632	144.132563	180.000000	1449.478377	55.159111	26.036540	9.998149	14.756699	37.899486	-37.772374	-45.000000	-45.000000	804.711268	-1171.192752	133.950887	-180.000000	-348.126676	32.264268	3.220961	-21.080954	
4.1800	-37.773775	-9.870267	18.952388	-235.145247	832.470243	6.902907	8.987372	-45.000000	40.781034	-45.000000	-45.000000	-4058.859207	-3703.298847	144.210485	180.000000	1449.443583	55.736957	26.082209	9.754672	14.715282	37.867711	-37.636074	-45.000000	-45.000000	804.706753	-1171.178138	133.998391	-180.000000	-348.032248	33.892741	2.914613	-20.980604	
4.1900	-37.879703	-9.594993	18.626366	-237.762528	832.967142	7.044486	9.002828	-45.000000	40.752049	-45.000000	-45.000000	-4058.947162	-3703.331908	144.294968	180.000000	1449.405237	56.369793	26.129272	9.506509	14.676777	37.836262	-37.495899	-45.000000	-45.000000	804.692899	-1171.167700	134.047658	-180.000000	-347.930346	35.583249	2.610903	-20.868627	
4.2000	-37.981646	-9.331958	18.309065	-240.315276	833.400038	7.192679	9.021850	-45.000000	40.729099	-45.000000	-45.000000	-4059.035805	-3703.374814	144.386485	180.000000	1449.365901	57.059892	26.183451	9.256556	14.645880	37.797234	-37.351728	-45.000000	-45.000000	804.667238	-1171.165511	134.096397	-180.000000	-347.825280	37.330013	2.307801	-20.741195	
4.2100	-38.084357	-9.084543	18.001658	-242.806256	833.768186	7.346721	9.036513	-45.000000	40.696345	-45.000000	-45.000000	-4059.116084	-3703.428190	144.484113	180.000000	1449.319205	57.802807	26.233549	9.000506	14.608760	37.770877	-37.205211	-45.000000	-45.000000	804.639158	-1171.165597	134.145174	-180.000000	-347.711673	39.112230	2.020938	-20.610860	
4.2200	-38.184622	-8.852017	17.702090	-245.237927	834.070788	7.505494	9.051101	-45.000000	40.663608	-45.000000	-45.000000	-4059.192211	-3703.491598	144.587915	180.000000	1449.266603	58.596418	26.286510	8.743735	14.572566	37.745232	-37.056253	-45.000000	-45.000000	804.607295	-1171.172242	134.189780	-180.000000	-347.597817	40.914538	1.746990	-20.472361	
